<svg height="130.20421mm" viewBox="0 0 130.20381 130.20421" width="130.20381mm" xmlns="http://www.w3.org/2000/svg"><g fill="#ccc" transform="translate(154.55858 45.639039)"><path d="m-154.21227 84.218461c-.46175-.46176-.46175-88.8615804 0-89.3233304.50517-.50517 1.46837-.3692 1.91646.27054.36869.52637.41188 5.10437004.41188 43.6562404v43.06821h62.441658 62.441664v-2.91041-2.91042h-20.596492c-19.617527 0-20.617306-.023-21.034374-.48385-.549928-.60767-.557564-1.21076-.02212-1.74621.345229-.34523 1.175734-.41577 4.894792-.41577h4.479028v-1.67879c0-1.29036.11195-1.78009.483854-2.11666 1.207256-1.09256 2.161979-.13657 2.161979 2.16484v1.63501l14.882811-.0683 14.882812-.0684.07849-1.79724c.06927-1.58602.150846-1.8302.694137-2.07774.441518-.20117.774776-.19534 1.178279.0206.552275.29557.562634.43149.562634 7.38264 0 5.15507-.08637 7.1679-.3175 7.39902-.462301.4623-129.077692.4623-129.539992 0zm8.58705-8.63302c-.4047-.44719-.43788-4.95832-.43788-59.53125v-59.04739h-2.91042-2.91041v14.25818c0 13.60151-.0231 14.28671-.50148 14.87749-.43158.53297-.60674.58227-1.25677.35369l-.7553-.26559-.0683-15.5744c-.0495-11.28288.0141-15.6737.23083-15.9348.23856-.28744 1.70826-.36041 7.25928-.36041 5.97464 0 7.01903.0589 7.37593.41578.55741.55741.52365 1.06385-.11339 1.70089-.41158.41157-.88195.52917-2.11667.52917h-1.5875v14.80457 14.80458l1.77692.0782c1.61432.0711 1.81327.14316 2.17404.78775.36261.64787.35408.75708-.0981 1.25677-.40158.44374-.81278.54725-2.17403.54725h-1.67879v14.4197896 14.4197904h1.30569c2.3078 0 3.35388.82587 2.66841 2.10668-.24793.46326-.54795.53916-2.13132.53916h-1.84278v14.94895 14.94896h1.67879c1.29036 0 1.7801.11195 2.11666.48386.57232.6324.55238.98915-.0913 1.63281-.41158.41157-.88195.52916-2.11667.52916h-1.5875v5.88466 5.88466l20.44307-20.43674c21.10291-21.09638 21.11437-21.1068 22.10193-20.11924.994917.99492 1.039573.94607-21.11375 23.09812l-21.43125 21.43003v2.05113 2.05113h2.3154 2.3154l44.449407-44.44999c30.69348-30.6938904 44.620302-44.45 45.001619-44.45.334521 0 1.612368 1.00009 3.241442 2.53688 1.479076 1.39528 2.696345 2.49661 2.705042 2.44739.287724-1.62806 2.546376-18.3742 2.486874-18.43823-.04728-.0509-4.25378.47844-9.347789 1.17625l-9.261832 1.26875 2.629508 2.73005c1.726324 1.79233 2.629509 2.93258 2.629509 3.31969 0 .42815-5.417227 6.00687-19.779583 20.36921964-10.878769 10.87877036-19.978543 19.77958036-20.221724 19.77958036-.243179 0-.629243-.1871-.857917-.41577-1.13755-1.13755-1.427697-.81228 18.560022-20.8071704l18.975797-18.9825996-3.233089-3.2703c-1.778198-1.79867-3.233089-3.44529-3.233089-3.65916 0-1.12356.455657-1.25084 8.334374-2.32804 4.220104-.57698 9.396068-1.29243 11.502144-1.58988 4.584477-.6475 5.654561-.67182 6.097113-.13857.272127.32789.02779 2.63906-1.321638 12.50156-.910516 6.65462-1.764731 12.3076696-1.898256 12.5623296-.14088.26869-.546058.46302-.965385.46302-.569312 0-1.366271-.6455-3.756687-3.04271-1.668742-1.6734896-3.155219-3.0427096-3.303283-3.0427096-.305651 0-85.596709 85.22146-85.596709 85.52687 0 .10897 2.61937.19813 5.82083.19813h5.82083v-1.5875c0-1.23473.11759-1.70509.52917-2.11667.60021-.60021.87785-.64437 1.60489-.25527.43077.23054.51178.56556.51178 2.11666v1.84278h14.94895 14.948961v-1.7009c0-1.80689.380135-2.53244 1.326812-2.53244.817456 0 1.319022 1.02848 1.319022 2.70471v1.52863h5.282358c4.951722 0 5.299501.032 5.55625.51177.384167.71782.341466 1.23494-.141883 1.71829-.373621.37362-3.829867.41577-34.09024.41577-32.28726 0-33.6925-.0199-34.11235-.48385zm71.70208 0c-.831882-.91922-.241583-2.16198 1.026914-2.16198 1.054468 0 1.550329 1.44499.765262 2.23006-.552426.55242-1.254773.52574-1.792176-.0681zm-17.050696-14.08877c-.47856-.14546-1.322872-.71723-1.876248-1.27061-3.098771-3.09877-.965502-8.23385 3.420591-8.23385 4.744577 0 6.634311 6.06284 2.741782 8.79649-1.168805.82083-2.94794 1.1147-4.286125.70797zm3.035866-3.20058c.888457-.83467.846407-2.37721-.08478-3.10968-1.467967-1.1547-3.536194-.27487-3.536194 1.5043 0 1.95006 2.21075 2.93021 3.620969 1.60538zm32.628835-23.12952c-3.246527-1.40788-4.060764-5.15668-1.689991-7.78085 2.955774-3.27169 8.399047-1.12561 8.359317 3.29576-.01955 2.17728-1.015318 3.65598-3.028307 4.49706-1.222928.51097-2.44438.50696-3.641019-.012zm2.889605-2.61145c1.92047-.99311 1.132168-4.11083-1.03941-4.11083-2.175177 0-2.965307 3.42953-.974892 4.23149.83163.33507 1.172501.31465 2.014302-.12066zm-24.303931.45283c-1.557221-.79406-2.482172-2.22005-2.61298-4.02844-.09699-1.34081-.0118-1.74737.576385-2.75103.3796-.64775 1.08369-1.42092 1.564639-1.71816 4.457131-2.75466 9.580557 2.49498 6.693196 6.85808-1.277776 1.93085-4.160218 2.69049-6.22124 1.63955zm3.487648-2.70739c1.301625-1.02386 1.142219-2.81399-.31781-3.569-2.176065-1.12529-4.269385 1.71438-2.539217 3.44455.794967.79497 1.941132.8449 2.857027.12445zm-48.617917.0844c-2.55794-1.35155-3.46336-4.06225-2.2169-6.63709 1.4874-3.07258 5.48185-3.59076 7.8527-1.01869 1.66938 1.81106 1.81463 3.92927.41601 6.06661-1.17385 1.79386-4.17359 2.58157-6.05181 1.58917zm3.62318-3.0096c.67615-.67615.77731-.93957.63468-1.65273-.38495-1.92473-2.53301-2.58289-3.76298-1.15296-.69243.805-.77633 1.40569-.3324 2.38.62921 1.38098 2.29991 1.58648 3.4607.42569zm19.145989-4.81077c-.520139-.74261-.519245-1.11888.0039-1.64202.436703-.43671 1.363525-.54277 1.863669-.21329.618004.40713 1.859638 2.324265 1.300285 2.883625-.70658.70658-2.653388-.293815-3.167851-1.028275zm49.726662-2.96301c-1.112991-.49825-2.391592-1.95214-2.776217-3.15682-1.227519-3.84473 2.777447-7.4240804 6.545344-5.84975 1.25685.52514 1.857893 1.08196 2.476735 2.29447.918946 1.80052.453454 4.50523-1.001871 5.82128-1.302001 1.17741-3.69553 1.58401-5.243991.89082zm3.327643-3.04318c1.184802-1.1848.985864-2.64346-.465979-3.41672-.834988-.44472-1.507521-.38029-2.267082.21718-1.27881 1.00591-1.105548 2.90371.33146 3.63056 1.011343.51155 1.556953.41363 2.401601-.43102zm-71.985124-9.7022504c-1.96621-.85266-2.9879-2.39491-2.9879-4.51025 0-4.06208 4.89623-6.38451 7.89997-3.7472 1.26821 1.11350004 1.77622 2.19579004 1.77622 3.78414 0 2.10627-1.04905 3.65038-3.04727 4.48528-1.22293.51098-2.44438.50696-3.64102-.012zm3.50384-3.04822c1.12891-1.3597.0872-3.67404996-1.65365-3.67404996-1.626 0-2.77636 2.24695996-1.78594 3.48840996.8995 1.12746 2.58223 1.21829 3.43959.18564zm22.286225-2.98442996c-1.469454-.64029-3.03484-2.97486004-3.03484-4.52608004 0-1.58498 1.582343-3.90602 3.093273-4.53733 1.952339-.81574 4.465581-.10327 5.798034 1.64366.676698.8872.763034 1.21461.763034 2.89367s-.08634 2.00646-.763034 2.89367004c-1.330526 1.7444-3.933989 2.47007996-5.856467 1.63241zm3.028703-2.66421004c.80549-.41654 1.077257-.88624 1.077257-1.86187s-.271767-1.44533-1.077257-1.86187c-1.043003-.53936-1.69568-.48423-2.465331.20822-1.006745.90577-1.024076 2.27041-.04131 3.25317.742974.74298 1.436786.81559 2.506644.26235zm-64.870138-6.51327c-.53187-.30979-.62142-1.56666-.14552-2.0425596.53332-.53332 1.49138-.36483 1.95579.34396.40148.6127396.40148.7101796 0 1.3229196-.45798.69896-1.04579.82095-1.81027.37568zm70.313019-11.3267996c-1.929802-.89066-2.827345-2.34974-2.815357-4.57675.02379-4.41813 5.489144-6.38616 8.430752-3.03585 2.29217 2.61063 1.398931 6.34978-1.840195 7.70317-1.287243.53785-2.475368.50934-3.7752-.0906zm3.023786-2.53285c1.92047-.99311 1.132167-4.11082-1.039411-4.11082-2.238573 0-2.923315 3.09997-.926041 4.19239.713642.39033 1.082503.37502 1.965452-.0816z" stroke-width=".264583"/><path d="m-53.535154 23.690458 8.163002.01109-.711657 129.528672h-7.25956z" transform="matrix(.70710678 .70710678 -.70710678 .70710678 0 0)"/><path d="m-55.093189 78.681969h2.063983v12.136956h-2.063983z" transform="matrix(.70710678 .70710678 -.70710678 .70710678 0 0)"/><path d="m-59.582493-29.336985h19.17971v3.665426h-19.17971z"/><path d="m-59.233734-26.480513h19.17971v3.665426h-19.17971z"/><path d="m-56.671162-23.043613h17.140406v3.665426h-17.140406z"/><path d="m-57.5172-20.229189h17.140406v3.665426h-17.140406z"/><path d="m-57.480381-17.49h17.140406v3.665426h-17.140406z"/><path d="m-58.580894-16.238909h17.140406v3.665426h-17.140406z"/><path d="m-45.481476-13.92779h4.361817v3.665426h-4.361817z"/></g></svg>